<?xml version="1.0" encoding="UTF-8"?>
<svg width="25px" height="25px" viewBox="0 0 25 25" version="1.1" xmlns="http://www.w3.org/2000/svg" xmlns:xlink="http://www.w3.org/1999/xlink">
    <!-- Generator: Sketch 53.2 (72643) - https://sketchapp.com -->
    <title>help</title>
    <desc>Created with Sketch.</desc>
    <g id="help" stroke="none" stroke-width="1" fill="none" fill-rule="evenodd">
        <path d="M11.477189,17.337593 C11.493629,16.270567 11.604603,15.427707 11.810111,14.809011 C12.015618,14.190316 12.434854,13.504372 13.067817,12.751177 L14.683107,10.93544 C15.373612,10.083614 15.718865,9.169021 15.718865,8.191662 C15.718865,7.250168 15.492807,6.514908 15.04069,5.985878 C14.588573,5.447882 13.930949,5.178885 13.067817,5.178885 C12.229346,5.178885 11.555281,5.420982 11.045623,5.905178 C10.535964,6.389374 10.281134,7.039454 10.281134,7.855413 L8,7.855413 C8.016441,6.402824 8.489108,5.232683 9.418002,4.34499 C10.355117,3.44833 11.571722,3 13.067817,3 C14.621455,3 15.829839,3.457296 16.692971,4.371889 C17.564323,5.277515 18,6.523874 18,8.110962 C18,9.680117 17.334155,11.226855 16.002466,12.751177 L14.658446,14.203766 C14.058364,14.93006 13.758323,15.974669 13.758323,17.337593 L11.477189,17.337593 Z M11.378545,21.601212 C11.378545,21.197714 11.489519,20.861465 11.711467,20.592468 C11.941636,20.314505 12.278668,20.175522 12.722565,20.175522 C13.166461,20.175522 13.503493,20.314505 13.733662,20.592468 C13.96383,20.861465 14.078915,21.197714 14.078915,21.601212 C14.078915,22.004707 13.96383,22.340956 13.733662,22.609953 C13.503493,22.869986 13.166461,23 12.722565,23 C12.278668,23 11.941636,22.869986 11.711467,22.609953 C11.489519,22.340956 11.378545,22.004707 11.378545,21.601212 Z" id="Fill-571" fill="#FFFFFF"></path>
    </g>
</svg>