<?xml version="1.0" encoding="UTF-8"?>
<svg width="25px" height="25px" viewBox="0 0 25 25" version="1.1" xmlns="http://www.w3.org/2000/svg" xmlns:xlink="http://www.w3.org/1999/xlink">
    <!-- Generator: Sketch 53.2 (72643) - https://sketchapp.com -->
    <title>settings</title>
    <desc>Created with Sketch.</desc>
    <g id="settings" stroke="none" stroke-width="1" fill="none" fill-rule="evenodd">
        <path d="M20.5326896,13.523749 C20.5731906,13.195624 20.6001906,12.854375 20.6001906,12.5 C20.6001906,12.145625 20.5731906,11.804376 20.5191876,11.476251 L22.8007405,9.74375 C23.0032455,9.58625 23.0572485,9.2975 22.9357445,9.074375 L20.7756935,5.438749 C20.6406915,5.202499 20.3571846,5.123751 20.1141796,5.202499 L17.4276156,6.252499 C16.8606017,5.8325 16.2665887,5.491249 15.6050737,5.22875 L15.2000647,2.446249 C15.1595627,2.18375 14.9300577,2 14.6600517,2 L10.3399499,2 C10.0699429,2 9.85393888,2.18375 9.81343788,2.446249 L9.4084279,5.22875 C8.74691192,5.491249 8.13939894,5.845625 7.58588595,6.252499 L4.89932204,5.202499 C4.65631604,5.110624 4.37281005,5.202499 4.23780706,5.438749 L2.07775612,9.074375 C1.94275213,9.310625 1.99675413,9.58625 2.21275912,9.74375 L4.49431305,11.476251 C4.44031105,11.804376 4.39981005,12.15875 4.39981005,12.5 C4.39981005,12.84125 4.42681105,13.195624 4.48081205,13.523749 L2.19925812,15.25625 C1.99675413,15.413751 1.94275213,15.702499 2.06425512,15.925625 L4.22430606,19.561251 C4.35930905,19.797501 4.64281604,19.876251 4.88582204,19.797501 L7.57238495,18.747499 C8.13939794,19.1675 8.73341192,19.508749 9.3949279,19.77125 L9.79993688,22.553749 C9.85393888,22.81625 10.0699429,23 10.3399499,23 L14.6600517,23 C14.9300577,23 15.1595627,22.81625 15.1865627,22.553749 L15.5915737,19.77125 C16.2530887,19.508749 16.8606027,19.154375 17.4141166,18.747499 L20.1006786,19.797501 C20.3436846,19.889376 20.6271925,19.797501 20.7621955,19.561251 L22.9222445,15.925625 C23.0572465,15.689375 23.0032475,15.413751 22.7872425,15.25625 L20.5326896,13.523749 L20.5326896,13.523749 Z M12.5000008,16.4375 C10.2724489,16.4375 8.44990493,14.665625 8.44990493,12.5 C8.44990493,10.334375 10.2724489,8.5625 12.5000008,8.5625 C14.7275527,8.5625 16.5500957,10.334375 16.5500957,12.5 C16.5500957,14.665625 14.7275527,16.4375 12.5000008,16.4375 Z" id="Fill-570" fill="#FFFFFF"></path>
    </g>
</svg>